<?xml version="1.0" standalone="no"?><!DOCTYPE svg PUBLIC "-//W3C//DTD SVG 1.1//EN" "http://www.w3.org/Graphics/SVG/1.1/DTD/svg11.dtd"><svg t="1643853019678" class="icon" viewBox="0 0 1024 1024" version="1.1" xmlns="http://www.w3.org/2000/svg" p-id="975" xmlns:xlink="http://www.w3.org/1999/xlink" width="200" height="200"><defs><style type="text/css"></style></defs><path d="M825.6 181.248c26.88 11.9808 44.8 36.0448 44.8 64.1024v320.512c0 24.064-13.4144 48.128-35.84 64.1536-22.4256 16.0256-49.3056 19.968-80.64 11.9808-49.3056-11.9808-129.8944-20.0192-224 20.0704-116.48 52.0704-219.4944 24.064-286.72-4.0448v172.288c0 24.064-17.92 40.0896-44.8 40.0896S153.6 854.3744 153.6 830.3104V221.2864c0-20.0192 13.4656-40.0384 31.3344-48.0768 17.92-7.9872 44.8-7.9872 62.7712 0 49.2544 28.0576 143.36 64.1024 241.8688 20.0192 156.8256-68.096 286.72-32.0512 336.0256-11.9808zM511.8976 510.1568a25.6 25.6 0 0 0-24.7296 21.76l-0.4096 4.7616c0 14.6432 11.264 26.5216 25.1392 26.5216a25.6 25.6 0 0 0 24.7808-21.76l0.4096-4.7616a25.856 25.856 0 0 0-25.1904-26.5216zM514.304 307.2h-4.608a25.8048 25.8048 0 0 0-25.088 27.0336l2.816 125.9008c0.3072 14.336 11.4176 25.7536 25.088 25.7536a25.7536 25.7536 0 0 0 25.0368-25.9584l1.792-125.952a25.7536 25.7536 0 0 0-25.088-26.7776z" fill="#1296db" p-id="976"></path></svg>